<svg width="433" height="400" viewBox="0 0 433 400" fill="none" xmlns="http://www.w3.org/2000/svg">
<path fill-rule="evenodd" clip-rule="evenodd" d="M138.484 70.4857C144.546 74.1421 150.502 75.9087 153.298 75.1875C160.309 73.3791 160.953 47.7136 155.529 37.5954C150.104 27.4773 122.217 23.0671 120.811 43.1144C120.324 50.0722 123.243 56.2816 127.557 61.3483L119.822 97.4231H142.289L138.484 70.4857Z" fill="#D4A181"/>
<path fill-rule="evenodd" clip-rule="evenodd" d="M125.83 65.8618C123.01 53.3081 114.977 44.7507 116.204 39.1398C117.431 33.5288 122.744 32.1612 122.744 32.1612C122.744 32.1612 125.492 21.0372 140.469 22.6982C155.445 24.3593 164.586 30.5834 160.639 44.279C157.01 44.279 152.63 42.9658 146.572 45.2158C143.689 46.2867 142.448 51.8576 142.448 51.8576H139.711C139.711 51.8576 135.725 45.2464 131.852 46.9988C127.978 48.7511 130.091 55.5115 130.091 55.5115L128.742 65.8618H125.83Z" fill="#191847"/>
<path fill-rule="evenodd" clip-rule="evenodd" d="M119.822 176.113L153.761 295.295L178.523 383.139H196.583L170.27 176.113H119.822Z" fill="#E87613"/>
<path fill-rule="evenodd" clip-rule="evenodd" d="M110.746 176.113C109.961 237.541 107.284 271.046 106.46 276.627C105.636 282.208 93.1731 317.712 69.0722 383.139H87.7816C118.464 320.373 135.592 284.868 139.165 276.627C142.738 268.385 153.764 234.88 170.372 176.113H110.746Z" fill="#FF9305"/>
<path fill-rule="evenodd" clip-rule="evenodd" d="M72.6309 385.335C71.5573 384.867 70.282 385.342 69.8854 386.444C69.2095 388.323 68.3361 391.052 68.3361 392.605C68.3361 395.139 69.1797 400 69.1797 400C72.1172 400 121.978 400 121.978 400C121.978 400 124.036 393.192 119.602 392.649C115.168 392.106 112.235 391.668 112.235 391.668L87.7552 380.747C87.2405 380.518 86.6379 380.759 86.4232 381.28L84.8708 385.048C84.8708 385.048 80.7659 386.965 78.1996 386.965C76.6768 386.965 74.3068 386.066 72.6309 385.335Z" fill="#E4E4E4"/>
<path fill-rule="evenodd" clip-rule="evenodd" d="M181.22 385.335C180.146 384.867 178.871 385.342 178.474 386.444C177.798 388.323 176.925 391.052 176.925 392.605C176.925 395.139 177.769 400 177.769 400C180.706 400 230.567 400 230.567 400C230.567 400 232.625 393.192 228.191 392.649C223.757 392.106 220.824 391.668 220.824 391.668L196.344 380.747C195.829 380.518 195.227 380.759 195.012 381.28L193.46 385.048C193.46 385.048 189.355 386.965 186.788 386.965C185.266 386.965 182.896 386.066 181.22 385.335Z" fill="#E4E4E4"/>
<path fill-rule="evenodd" clip-rule="evenodd" d="M233.428 68.3475L197.946 79.0064L207.005 94.1088L234.593 77.8614C247.472 77.0939 253.557 75.8229 252.848 74.0483C252.25 72.552 250.828 72.297 249.518 72.0622C248.498 71.8793 247.546 71.7085 247.104 70.9727C246.096 69.2922 249.63 64.9178 253.16 60.9101C256.691 56.9024 253.865 56.7157 252.159 57.0372C246.291 59.421 240.048 63.1911 233.428 68.3475ZM224.671 163.551L194.811 141.608L188.21 157.937L217.78 170.207C226.142 180.038 230.819 184.136 231.809 182.501C232.643 181.123 231.991 179.833 231.39 178.645C230.922 177.72 230.485 176.856 230.806 176.06C231.541 174.243 237.159 174.434 242.482 174.844C247.805 175.254 246.254 172.883 244.97 171.713C239.536 168.458 232.77 165.737 224.671 163.551Z" fill="#D4A181"/>
<path fill-rule="evenodd" clip-rule="evenodd" d="M148.43 82.517C164.691 112.858 188.205 136.117 222.294 160.296L209.387 174.86C171.325 160.705 151.237 152.165 141.372 123.499C138.896 116.304 137.166 93.3686 135.682 81.3011L148.43 82.517Z" fill="#69A1AC"/>
<path fill-rule="evenodd" clip-rule="evenodd" d="M102.972 183.606H175.053C175.053 183.606 150.561 108.859 150.031 81.0033C150.013 80.0565 148.265 78.3882 147.492 78.6067C139.012 81.0033 129.344 76.8145 129.344 76.8145C112.256 104.316 106.347 138.177 102.972 183.606Z" fill="#F2F2F2"/>
<path fill-rule="evenodd" clip-rule="evenodd" d="M147.424 118.772C158.682 167.097 158.163 206.655 133.309 206.655H94.8757C88.7716 165.604 104.814 108.686 119.687 79.9768C120.255 78.8805 121.464 76.8137 124.313 76.8137H135.48C135.485 76.8285 135.49 76.8433 135.495 76.8581C138.856 76.8857 142.556 77.0086 146.564 77.1417C167.197 77.8272 195.966 78.7829 228.339 68.3828L232.155 87.468C202.936 106.273 173.35 120.841 147.424 118.772Z" fill="#89C5CC"/>
<path d="M231 188H271V353H231V188Z" fill="url(#paint0_linear)"/>
<path d="M286 158H326V353H286V158Z" fill="url(#paint1_linear)"/>
<path d="M342 58H382V353H342V58Z" fill="url(#paint2_linear)"/>
<g filter="url(#filter0_d)">
<path fill-rule="evenodd" clip-rule="evenodd" d="M315.608 75.5414C315.289 76.2086 315.572 77.0079 316.239 77.3267L323.786 80.9324C279.846 84.5591 252.823 108.192 245.46 156.788C245.349 157.519 245.852 158.201 246.583 158.312C247.314 158.423 247.997 157.92 248.107 157.189C255.355 109.358 281.824 86.6412 325.389 83.4942L318.922 88.6952C318.346 89.1587 318.255 90.0015 318.718 90.5777C319.182 91.1539 320.024 91.2453 320.6 90.7818L331.784 81.7864L317.393 74.9105C316.726 74.5918 315.927 74.8742 315.608 75.5414Z" fill="#FF9305"/>
</g>
<defs>
<filter id="filter0_d" x="217.515" y="64.4121" width="140.799" height="118.128" filterUnits="userSpaceOnUse" color-interpolation-filters="sRGB">
<feFlood flood-opacity="0" result="BackgroundImageFix"/>
<feColorMatrix in="SourceAlpha" type="matrix" values="0 0 0 0 0 0 0 0 0 0 0 0 0 0 0 0 0 0 127 0"/>
<feOffset dy="8"/>
<feGaussianBlur stdDeviation="8"/>
<feColorMatrix type="matrix" values="0 0 0 0 1 0 0 0 0 0.576471 0 0 0 0 0.0196078 0 0 0 0.3 0"/>
<feBlend mode="normal" in2="BackgroundImageFix" result="effect1_dropShadow"/>
<feBlend mode="normal" in="SourceGraphic" in2="effect1_dropShadow" result="shape"/>
</filter>
<linearGradient id="paint0_linear" x1="231" y1="188" x2="231" y2="313.847" gradientUnits="userSpaceOnUse">
<stop stop-color="#B4EC51"/>
<stop offset="1" stop-color="#429321"/>
</linearGradient>
<linearGradient id="paint1_linear" x1="286" y1="158" x2="286" y2="306.729" gradientUnits="userSpaceOnUse">
<stop stop-color="#B4EC51"/>
<stop offset="1" stop-color="#429321"/>
</linearGradient>
<linearGradient id="paint2_linear" x1="342" y1="58" x2="342" y2="283" gradientUnits="userSpaceOnUse">
<stop stop-color="#B4EC51"/>
<stop offset="1" stop-color="#429321"/>
</linearGradient>
</defs>
</svg>
