<svg width="176" height="36" viewBox="0 0 176 36" fill="none" xmlns="http://www.w3.org/2000/svg">
<path fill-rule="evenodd" clip-rule="evenodd" d="M107.604 7.90381C108.712 7.90381 109.385 8.06205 109.938 8.29942L108.989 13.3237C108.277 13.1259 107.684 13.0072 106.853 13.0072C105.389 13.0072 105.587 7.90381 107.604 7.90381ZM112.905 28.0005V2.20703H122.321C127.938 2.20703 132.409 4.26418 132.409 10.5147C132.409 16.5675 127.78 19.2576 122.321 19.2576H118.76V28.0005H112.905ZM118.76 14.6292H121.965C125.169 14.6292 126.712 13.2049 126.712 10.5147C126.712 7.8245 125.051 6.83545 121.965 6.83545H118.76V14.6292ZM135.692 22.5411C135.692 18.4268 138.976 16.1719 146.73 15.3807C146.611 13.64 145.741 12.5323 143.644 12.5323C141.982 12.5323 140.321 13.2049 138.422 14.3126L136.365 10.4752C138.857 8.97193 141.666 7.90381 144.752 7.90381C149.776 7.90381 152.545 10.7521 152.545 16.7653V28.0004H147.798L147.363 25.9828H147.244C145.582 27.4465 143.723 28.4751 141.508 28.4751C137.947 28.4751 135.692 25.8641 135.692 22.5411ZM141.231 22.1059C141.231 23.3719 142.101 23.9653 143.486 23.9653C144.831 23.9653 145.701 23.3323 146.73 22.3037V18.8618C142.576 19.4157 141.231 20.6026 141.231 22.1059ZM157.965 30.8489C158.321 30.928 158.835 31.0863 159.27 31.0863C161.209 31.0863 162.198 30.0577 162.712 28.5148L162.989 27.4862L155.433 8.37842H161.288L164.097 16.8048C164.651 18.5851 165.125 20.4444 165.64 22.3829H165.798C166.233 20.5236 166.668 18.6642 167.143 16.8048L169.516 8.37842H175.095L168.29 28.1983C166.431 33.1434 164.334 35.6753 159.706 35.6753C158.519 35.6753 157.727 35.5171 156.936 35.2797L157.965 30.8489Z" fill="#FF9305"/>
<path fill-rule="evenodd" clip-rule="evenodd" d="M0 15.2612C0 6.71592 5.65715 1.7312 12.3033 1.7312C15.5077 1.7312 18.1978 3.31365 19.9385 5.09391L16.7341 8.69398C15.4286 7.50714 14.2022 6.75548 12.3824 6.75548C8.78242 6.75548 5.97363 9.88082 5.97363 15.0633C5.97363 20.3646 8.46594 23.4503 12.2242 23.4503C14.3604 23.4503 15.8637 22.5404 17.1297 21.1558L20.3341 24.6767C18.1978 27.1691 15.3495 28.4746 12.1451 28.4746C5.45934 28.4746 0 23.9251 0 15.2612ZM23.7363 21.9075V0.267578H29.5516V22.1448C29.5516 23.3712 30.1055 23.7668 30.5802 23.7668C30.8176 23.7668 30.9758 23.7668 31.2923 23.6877L32.0044 27.9999C31.3714 28.2768 30.3824 28.4746 29.0769 28.4746C25.0813 28.4746 23.7363 25.8636 23.7363 21.9075ZM33.9033 18.1885C33.9033 11.8193 38.4527 7.90283 43.1604 7.90283C48.7385 7.90283 51.5077 11.9775 51.5077 17.3182C51.5077 18.3467 51.389 19.2962 51.2703 19.7709H39.5209C40.0352 22.7379 42.0132 24.0434 44.6242 24.0434C46.0879 24.0434 47.433 23.6082 48.8571 22.7379L50.7956 26.2588C48.778 27.6434 46.167 28.4741 43.833 28.4741C38.2154 28.4741 33.9033 24.6763 33.9033 18.1885ZM39.4813 16.1707H46.5627C46.5627 13.9158 45.6132 12.3335 43.2791 12.3335C41.4593 12.3335 39.8769 13.5598 39.4813 16.1707ZM60.0528 27.9995L53.4462 8.37744H59.3011L61.833 17.6346C62.3473 19.5731 62.8616 21.6302 63.3758 23.6874H63.5341C64.0088 21.6302 64.5231 19.5731 65.0374 17.6346L67.6088 8.37744H73.1868L66.778 27.9995H60.0528ZM75.0857 18.1885C75.0857 11.8193 79.6352 7.90283 84.3429 7.90283C89.9209 7.90283 92.6901 11.9775 92.6901 17.3182C92.6901 18.3467 92.5714 19.2962 92.4528 19.7709H80.7033C81.2176 22.7379 83.1956 24.0434 85.8066 24.0434C87.2703 24.0434 88.6154 23.6082 90.0396 22.7379L91.978 26.2588C89.9605 27.6434 87.3495 28.4741 85.0154 28.4741C79.3978 28.4741 75.0857 24.6763 75.0857 18.1885ZM80.6637 16.1707H87.7451C87.7451 13.9158 86.7956 12.3335 84.4615 12.3335C82.6418 12.3335 81.0593 13.5598 80.6637 16.1707ZM96.7253 27.999V8.37755H101.473L101.868 11.8192H102.026C103.451 9.16873 105.587 7.90283 107.604 7.90283C108.712 7.90283 109.385 8.06107 109.938 8.29843L108.989 13.3225C108.277 13.1247 107.684 13.006 106.853 13.006C105.389 13.006 103.569 13.9554 102.541 16.6059V27.999H96.7253Z" fill="white"/>
</svg>
