<svg width="176" height="36" viewBox="0 0 176 36" fill="none" xmlns="http://www.w3.org/2000/svg">
<path fill-rule="evenodd" clip-rule="evenodd" d="M107.604 7.90179C108.712 7.90179 109.385 8.06003 109.938 8.2974L108.989 13.3216C108.277 13.1238 107.684 13.0051 106.853 13.0051C105.389 13.0051 105.587 7.90179 107.604 7.90179ZM112.905 27.9985V2.20508H122.321C127.938 2.20508 132.409 4.26222 132.409 10.5128C132.409 16.5655 127.78 19.2556 122.321 19.2556H118.76V27.9985H112.905ZM118.76 14.6271H121.965C125.169 14.6271 126.712 13.2029 126.712 10.5128C126.712 7.82267 125.051 6.83366 121.965 6.83366H118.76V14.6271ZM135.692 22.5392C135.692 18.4249 138.976 16.1699 146.73 15.3787C146.611 13.6381 145.741 12.5304 143.644 12.5304C141.982 12.5304 140.321 13.2029 138.422 14.3106L136.365 10.4732C138.857 8.96992 141.666 7.90179 144.752 7.90179C149.776 7.90179 152.545 10.7501 152.545 16.7633V27.9985H147.798L147.363 25.9809H147.244C145.582 27.4447 143.723 28.4732 141.508 28.4732C137.947 28.4732 135.692 25.8622 135.692 22.5392ZM141.231 22.104C141.231 23.3699 142.101 23.9633 143.486 23.9633C144.831 23.9633 145.701 23.3304 146.73 22.3018V18.86C142.576 19.4139 141.231 20.6007 141.231 22.104ZM157.965 30.8468C158.321 30.926 158.835 31.0842 159.27 31.0842C161.209 31.0842 162.198 30.0556 162.712 28.5128L162.989 27.4842L155.433 8.37652H161.288L164.097 16.8029C164.651 18.5831 165.125 20.4425 165.64 22.3809H165.798C166.233 20.5216 166.668 18.6622 167.143 16.8029L169.516 8.37652H175.095L168.29 28.1963C166.431 33.1414 164.334 35.6732 159.706 35.6732C158.519 35.6732 157.727 35.515 156.936 35.2776L157.965 30.8468Z" fill="#FF9305"/>
<path fill-rule="evenodd" clip-rule="evenodd" d="M0 15.261C0 6.71594 5.65715 1.73133 12.3033 1.73133C15.5077 1.73133 18.1978 3.31374 19.9385 5.09396L16.7341 8.69396C15.4286 7.50715 14.2022 6.7555 12.3824 6.7555C8.78242 6.7555 5.97363 9.88077 5.97363 15.0632C5.97363 20.3643 8.46594 23.45 12.2242 23.45C14.3604 23.45 15.8637 22.5401 17.1297 21.1555L20.3341 24.6764C18.1978 27.1687 15.3495 28.4742 12.1451 28.4742C5.45934 28.4742 0 23.9247 0 15.261ZM23.7363 21.9071V0.267578H29.5516V22.1445C29.5516 23.3709 30.1055 23.7665 30.5802 23.7665C30.8176 23.7665 30.9758 23.7665 31.2923 23.6874L32.0044 27.9994C31.3714 28.2764 30.3824 28.4742 29.0769 28.4742C25.0813 28.4742 23.7363 25.8632 23.7363 21.9071ZM33.9033 18.1885C33.9033 11.8192 38.4527 7.90275 43.1604 7.90275C48.7385 7.90275 51.5077 11.9775 51.5077 17.3181C51.5077 18.3467 51.389 19.2962 51.2703 19.7709H39.5209C40.0352 22.7379 42.0132 24.0434 44.6242 24.0434C46.0879 24.0434 47.433 23.6082 48.8571 22.7379L50.7956 26.2588C48.778 27.6434 46.167 28.4742 43.833 28.4742C38.2154 28.4742 33.9033 24.6764 33.9033 18.1885ZM39.4813 16.1709H46.5627C46.5627 13.9159 45.6132 12.3335 43.2791 12.3335C41.4593 12.3335 39.8769 13.5599 39.4813 16.1709ZM60.0528 27.9994L53.4462 8.37747H59.3011L61.833 17.6346C62.3473 19.5731 62.8616 21.6302 63.3758 23.6874H63.5341C64.0088 21.6302 64.5231 19.5731 65.0374 17.6346L67.6088 8.37747H73.1868L66.778 27.9994H60.0528ZM75.0857 18.1885C75.0857 11.8192 79.6352 7.90275 84.3429 7.90275C89.9209 7.90275 92.6901 11.9775 92.6901 17.3181C92.6901 18.3467 92.5714 19.2962 92.4528 19.7709H80.7033C81.2176 22.7379 83.1956 24.0434 85.8066 24.0434C87.2703 24.0434 88.6154 23.6082 90.0396 22.7379L91.978 26.2588C89.9605 27.6434 87.3495 28.4742 85.0154 28.4742C79.3978 28.4742 75.0857 24.6764 75.0857 18.1885ZM80.6637 16.1709H87.7451C87.7451 13.9159 86.7956 12.3335 84.4615 12.3335C82.6418 12.3335 81.0593 13.5599 80.6637 16.1709ZM96.7253 27.9994V8.37747H101.473L101.868 11.8192H102.026C103.451 9.16868 105.587 7.90275 107.604 7.90275C108.712 7.90275 109.385 8.06099 109.938 8.29835L108.989 13.3225C108.277 13.1247 107.684 13.006 106.853 13.006C105.389 13.006 103.569 13.9555 102.541 16.606V27.9994H96.7253Z" fill="black"/>
</svg>
