<svg width="368" height="334" viewBox="0 0 368 334" fill="none" xmlns="http://www.w3.org/2000/svg">
<rect y="34.7305" width="180" height="240" rx="8" transform="rotate(-10 0 34.7305)" fill="#718195" fill-opacity="0.05"/>
<rect x="23.1691" y="50.9531" width="180" height="240" rx="8" transform="rotate(-10 23.1691 50.9531)" fill="#718195" fill-opacity="0.1"/>
<rect width="60" height="20.0001" rx="8" transform="matrix(0.984808 -0.173649 0.173647 0.984808 48.0747 77.0234)" fill="#718195" fill-opacity="0.1"/>
<rect x="53.2841" y="106.568" width="60" height="20" rx="8" transform="rotate(-10 53.2841 106.568)" fill="#718195" fill-opacity="0.1"/>
<rect x="61.9666" y="155.809" width="110" height="9.99999" rx="4.99999" transform="rotate(-10 61.9666 155.809)" fill="#718195" fill-opacity="0.1"/>
<rect x="65.4395" y="175.506" width="70" height="9.99999" rx="4.99999" transform="rotate(-10 65.4395 175.506)" fill="#718195" fill-opacity="0.1"/>
<rect x="72.3855" y="214.898" width="70" height="9.99998" rx="4.99999" transform="rotate(-10 72.3855 214.898)" fill="#718195" fill-opacity="0.1"/>
<rect width="70" height="10" rx="5.00002" transform="matrix(0.984808 -0.173649 0.173647 0.984808 75.8584 234.594)" fill="#718195" fill-opacity="0.1"/>
<rect x="117.011" y="64.8691" width="20" height="20" rx="8" transform="rotate(-9.99999 117.011 64.8691)" fill="#718195" fill-opacity="0.1"/>
<rect x="122.221" y="94.4141" width="20" height="20.0001" rx="8" transform="rotate(-9.99998 122.221 94.4141)" fill="#718195" fill-opacity="0.1"/>
<g clip-path="url(#clip0)">
<path d="M234.43 316.155C277.976 323.833 319.502 294.757 327.18 251.21C334.859 207.664 305.782 166.138 262.236 158.46C218.689 150.781 177.163 179.858 169.485 223.404C161.807 266.951 190.883 308.477 234.43 316.155Z" fill="#7BC039"/>
<path d="M236.932 301.963C272.64 308.259 306.692 284.416 312.988 248.708C319.284 213 295.441 178.949 259.733 172.652C224.025 166.356 189.974 190.199 183.678 225.907C177.381 261.615 201.224 295.666 236.932 301.963Z" fill="white"/>
<path d="M286.76 142.27C285.259 150.785 277.319 155.239 268.804 153.737L257.449 151.735C248.934 150.234 242.996 143.333 244.498 134.818C245.999 126.302 253.939 121.848 262.455 123.35L273.809 125.352C282.324 126.854 288.262 133.754 286.76 142.27Z" fill="#7BC039"/>
<path d="M257.749 255.813C258.269 252.863 257.665 250.195 255.938 247.808C254.242 245.427 251.086 242.986 246.469 240.486C240.009 237.199 235.501 233.611 232.948 229.723C230.431 225.809 229.628 221.271 230.539 216.109C231.466 210.852 233.749 206.809 237.388 203.98C241.059 201.156 245.627 199.896 251.094 200.199L252.951 189.668L260.116 190.931L258.251 201.51C263.506 203.197 267.291 206.195 269.606 210.504C271.952 214.818 272.546 220.261 271.387 226.832L262.539 225.272C263.336 220.752 262.895 216.972 261.217 213.933C259.538 210.893 256.871 209.051 253.217 208.407C249.402 207.734 246.309 208.214 243.939 209.845C241.575 211.445 240.082 214.007 239.46 217.534C238.883 220.804 239.481 223.603 241.252 225.931C243.06 228.234 246.26 230.616 250.85 233.078C255.478 235.514 258.984 237.933 261.37 240.337C263.794 242.715 265.423 245.283 266.259 248.042C267.127 250.806 267.261 253.887 266.662 257.285C265.707 262.703 263.303 266.774 259.451 269.5C255.631 272.231 250.734 273.384 244.76 272.958L243.14 282.143L236.024 280.888L237.643 271.703C231.776 270.107 227.469 267.166 224.721 262.88C222.011 258.568 221.215 253.238 222.334 246.891L231.23 248.459C230.445 252.915 231.01 256.552 232.926 259.369C234.842 262.186 237.948 263.973 242.244 264.73C246.444 265.471 249.924 265.043 252.684 263.448C255.445 261.852 257.133 259.307 257.749 255.813Z" fill="#718195"/>
</g>
<defs>
<clipPath id="clip0">
<rect width="200" height="200" fill="white" transform="translate(170.73 102) rotate(10)"/>
</clipPath>
</defs>
</svg>
