<svg width="409" height="402" viewBox="0 0 409 402" fill="none" xmlns="http://www.w3.org/2000/svg">
<rect x="177" y="35.7285" width="185.179" height="145.216" rx="8.23017" transform="rotate(-10 177 35.7285)" fill="white" fill-opacity="0.1"/>
<rect x="200.836" y="52.418" width="185.179" height="145.216" rx="8.23017" transform="rotate(-10 200.836 52.418)" fill="white" fill-opacity="0.5"/>
<path d="M256 164.002L283 131.002L307 151L364 88" stroke="#7BC039" stroke-width="9" stroke-linecap="round"/>
<rect x="232.036" y="78.9707" width="113.165" height="10.2877" rx="5.14385" transform="rotate(-10 232.036 78.9707)" fill="white"/>
<rect x="235.609" y="99.2324" width="72.014" height="10.2877" rx="5.14385" transform="rotate(-10 235.609 99.2324)" fill="white"/>
<path fill-rule="evenodd" clip-rule="evenodd" d="M122.145 92.3099C128.334 94.9375 134.175 95.8065 136.712 94.76C143.074 92.1361 140.298 67.9767 133.857 59.2037C127.416 50.4307 100.579 49.9838 101.898 68.9741C102.356 75.565 105.923 81.0031 110.652 85.1849L108.126 120.046L129.278 117.074L122.145 92.3099Z" fill="#D4A181"/>
<path fill-rule="evenodd" clip-rule="evenodd" d="M119.886 68.5634C121.334 65.5902 122.799 63.2717 124.915 61.7475C134.235 60.5871 135.09 58.772 134.303 53.1702C132.65 52.3098 127.097 51.2504 121.091 51.5769C117.942 51.1386 114.378 51.8051 111.126 53.7315C107.03 55.5374 103.784 58.6432 102.873 63.7318C98.4967 74.4727 104.33 84.1936 110.729 86.895C112.04 84.8181 113.158 82.8267 114.14 80.9329C113.022 80.1137 112.225 78.8634 112.017 77.3852C111.608 74.4735 113.643 71.7804 116.564 71.37C116.779 71.3398 116.992 71.3228 117.204 71.3183C117.847 74.9403 120.118 87.1807 122.14 91.2592C124.524 96.0676 134.471 95.9325 137.88 95.4535C140.824 95.0397 140.333 92.2744 139.981 90.2925C139.93 90.0071 139.882 89.7379 139.848 89.4943C139.777 88.9855 139.113 89.0801 138.363 89.187C137.389 89.3258 136.27 89.4853 136.114 88.3712C135.943 87.1567 137.496 85.9886 138.885 84.9433C139.752 84.2911 140.555 83.6868 140.836 83.1488C141.724 81.4517 141.804 79.3198 140.137 79.5541C139.226 79.6821 138.05 80.3815 136.635 81.2228C134.498 82.493 131.817 84.0869 128.682 84.5274C123.503 85.2553 119.93 68.7667 119.886 68.5634Z" fill="#191847"/>
<path fill-rule="evenodd" clip-rule="evenodd" d="M113.92 189.93L146.521 301.933L161.855 386.027H177.246L161.883 189.93H113.92Z" fill="#D4A181"/>
<path fill-rule="evenodd" clip-rule="evenodd" d="M99.2683 189.93C101.543 248.115 100.646 279.851 100.137 285.137C99.6277 290.424 96.7374 325.828 77.0414 387.802H93.0492C119.133 328.349 128.239 292.944 131.231 285.137C134.222 277.33 143.058 245.594 155.957 189.93H99.2683Z" fill="#D4A181"/>
<path fill-rule="evenodd" clip-rule="evenodd" d="M113.22 189.93C121.7 228.47 136.367 289.991 157.221 374.492H179.732C181.394 287.76 174.321 230.676 162.073 189.93H113.22Z" fill="#CFB581"/>
<path fill-rule="evenodd" clip-rule="evenodd" d="M99.1546 189.93C101.382 248.115 95.6087 305.438 77.7239 375.398H101.742C127.874 316.832 146.603 259.792 159.404 189.93H99.1546Z" fill="#E2C998"/>
<path fill-rule="evenodd" clip-rule="evenodd" d="M74.7598 399.337L75.5654 386.388C75.6052 385.748 76.2277 385.31 76.8558 385.438C84.5582 387.001 95.0747 383.365 95.0747 383.365C105.63 390.819 120.779 394.298 126.416 395.39C127.598 395.62 128.347 396.812 128.018 397.97L126.872 401.999H95.0747H76.5263L74.7598 399.337Z" fill="#E2E2F3"/>
<path fill-rule="evenodd" clip-rule="evenodd" d="M158.42 399.337L159.225 386.388C159.265 385.748 159.888 385.31 160.516 385.438C168.218 387.001 178.735 383.365 178.735 383.365C189.29 390.819 204.439 394.298 210.076 395.39C211.258 395.62 212.007 396.812 211.678 397.97L210.532 401.999H178.735H160.186L158.42 399.337Z" fill="#E2E2F3"/>
<path fill-rule="evenodd" clip-rule="evenodd" d="M178.267 111.703L150.024 132.706L163.019 143.207L182.396 119.792C193.653 114.929 198.678 111.823 197.468 110.473C196.449 109.335 195.096 109.57 193.849 109.786C192.878 109.955 191.972 110.112 191.338 109.6C189.892 108.432 191.63 103.392 193.483 98.6787C195.337 93.9658 192.752 94.7167 191.332 95.5567C186.863 99.5829 182.508 104.965 178.267 111.703ZM212.319 130.818L199.916 140.066L202.57 153.403C202.57 153.403 210.393 145.917 217.588 142.784C226.762 138.788 230.34 136.219 234.172 129.637C236.222 126.115 237.445 119.443 234.777 117.701C233.754 117.033 230.623 119.391 227.428 121.798C224.993 123.632 222.521 125.494 220.917 126.065C218.758 126.834 218.614 123.924 218.499 121.599C218.417 119.93 218.35 118.563 217.563 119.072C213.639 119.692 212.319 130.818 212.319 130.818Z" fill="#D4A181"/>
<path fill-rule="evenodd" clip-rule="evenodd" d="M134.603 131.079C145.302 129.46 159.273 125.196 173.163 113.405L181.021 125.876C171.967 137.759 158.382 148.386 145.402 149.841C135.173 150.988 128.238 139.432 134.603 131.079Z" fill="#106D95"/>
<path fill-rule="evenodd" clip-rule="evenodd" d="M128.133 97.5228L130.566 97.1809C133.628 111.031 140.425 125.538 147.266 140.138C148.863 143.547 150.463 146.962 152.018 150.374C170.356 151.898 207.851 132.352 207.851 132.352C207.851 132.352 220.701 151.5 221.179 160.356C199.891 175.547 180.953 183.647 164.783 186.279C166.647 195.801 166.759 205.096 163.996 213.991C160.294 225.91 137.934 226.142 118.522 226.343C108.149 226.451 98.618 226.55 93.2242 228.418C84.1687 209.142 87.5534 195.728 90.678 183.345C92.5612 175.882 94.3499 168.793 93.2636 161.022C90.1001 138.389 103.43 100.995 106.112 100.618L106.882 100.509C106.882 100.509 106.882 100.509 106.882 100.509L128.133 97.5227C128.133 97.5227 128.133 97.5228 128.133 97.5228Z" fill="#108ABE"/>
</svg>
